# xmcd
#
# Track frame offsets:
#	150
#	20975
#	35285
#	45920
#	60422
#	72142
#	84497
#	95146
#	104986
#	116342
#	128680
#	142765
#	154354
#	170522
#	220646
#	233001
#	246332
#
# Disc length: 3527 seconds
#
# Revision: 1
# Processed by: cddbd v1.5.1PL0 Copyright (c) Steve Scherf et al.
# Submitted via: dBpowerAMP V4.0
#
DISCID=e50dc511
DTITLE=Credence - Revival
DYEAR=1900
DGENRE=Pop
TTITLE0=a
TTITLE1=b
TTITLE2=c
TTITLE3=d
TTITLE4=e
TTITLE5=f
TTITLE6=g
TTITLE7=h
TTITLE8=i
TTITLE9=j
TTITLE10=k
TTITLE11=l
TTITLE12=m
TTITLE13=n
TTITLE14=o
TTITLE15=p
TTITLE16=q
EXTD=Credence - Revival
EXTT0=
EXTT1=
EXTT2=
EXTT3=
EXTT4=
EXTT5=
EXTT6=
EXTT7=
EXTT8=
EXTT9=
EXTT10=
EXTT11=
EXTT12=
EXTT13=
EXTT14=
EXTT15=
EXTT16=
PLAYORDER=
